<svg data-v-0dd9719b="" version="1.0" xmlns="http://www.w3.org/2000/svg" xmlns:xlink="http://www.w3.org/1999/xlink" width="100%" height="100%" viewBox="0 0 340.000000 250.000000" preserveAspectRatio="xMidYMid meet" color-interpolation-filters="sRGB" style="margin: auto;"> <rect data-v-0dd9719b="" x="0" y="0" width="100%" height="100%" fill="#fff" fill-opacity="1" class="background"></rect> <rect data-v-0dd9719b="" x="0" y="0" width="100%" height="100%" fill="url(#watermark)" fill-opacity="1" class="watermarklayer"></rect> <g data-v-0dd9719b="" fill="#8dc63f" class="icon-text-wrapper icon-svg-group iconsvg" transform="translate(49.465003967285156,97.25374603271484)"><g class="iconsvg-imagesvg" transform="translate(0,1.7681770324707031)"><g><rect fill="#8dc63f" fill-opacity="0" stroke-width="2" x="0" y="0" width="60" height="51.956149010235364" class="image-rect"></rect> <svg x="0" y="0" width="60" height="51.956149010235364" filtersec="colorsb7118200493" class="image-svg-svg primary" style="overflow: visible;"><svg version="1.1" id="图层_1" xmlns="http://www.w3.org/2000/svg" xmlns:xlink="http://www.w3.org/1999/xlink" x="0px" y="0px" viewBox="1.340000033378601 1.7799999713897705 121.66000366210938 105.3499984741211" enable-background="new 0 0 125 109" xml:space="preserve">
<polygon fill="#8DC63F" points="109.84,31.65 105.29,23.76 92.58,1.78 92.22,1.78 82.05,1.78 56.24,1.78 42.27,1.78 48.57,12.71 
	62.08,36.08 69.1,24.04 75.69,12.71 85.89,12.71 74.19,32.89 67.19,44.97 80.06,67.25 87.06,55.17 98.95,34.66 103.53,42.6 
	91.7,63.23 84.75,75.35 91.53,87.1 97.83,98.04 104.83,85.95 123,54.45 "></polygon>
<polygon fill="#1C75BC" points="84.87,96.2 78.79,85.73 72.77,96.2 63.25,96.2 74.05,77.6 61.14,55.41 37.77,95.71 13.96,54.45 
	37.18,14.24 30.84,3.36 1.34,54.45 31.76,107.13 56.92,107.13 66.49,107.13 91.24,107.13 "></polygon>
</svg></svg> <!----></g></g> <g transform="translate(67,0)"><g data-gra="path-name" fill-rule="" class="tp-name iconsvg-namesvg" transform="translate(0,0)"><g transform="scale(1)"><g><path d="M8.26-30.37Q6.68-31.2 5.98-31.79 5.27-32.39 5.27-32.96L5.27-32.96Q5.27-34.8 7.16-34.8L7.16-34.8Q8.04-34.8 10.85-33.4L10.85-33.4Q12-32.83 12.63-32.15 13.27-31.46 13.27-30.85L13.27-30.85Q13.27-28.87 11.38-28.87L11.38-28.87Q10.85-28.87 9.45-29.75L9.45-29.75 8.26-30.37ZM19.73-16.88Q17.67-16.88 16.74-17.75 15.82-18.63 16-20.57L16-20.57 16-30.41Q16-32.43 16.88-33.38 17.75-34.32 19.73-34.15L19.73-34.15 34.15-34.15Q36.17-34.15 37.09-33.24 38.01-32.34 37.88-30.41L37.88-30.41 37.88-20.57Q37.88-18.59 36.98-17.67 36.08-16.74 34.15-16.88L34.15-16.88 19.73-16.88ZM20.87-30.98Q20.13-30.98 19.78-30.65 19.42-30.32 19.47-29.58L19.47-29.58 19.47-21.45Q19.47-20.65 19.78-20.32 20.08-20 20.87-20.04L20.87-20.04 32.92-20.04Q33.71-20.04 34.04-20.35 34.37-20.65 34.32-21.45L34.32-21.45 34.32-29.58Q34.32-30.32 33.99-30.67 33.66-31.03 32.92-30.98L32.92-30.98 20.87-30.98ZM22.32-20.79Q20.79-20.79 20.79-22.32L20.79-22.32Q20.79-22.94 21.45-23.64L21.45-23.64Q23.33-25.71 24.65-28.34L24.65-28.34Q25.71-30.41 26.67-30.41L26.67-30.41Q27.42-30.41 27.84-29.97 28.26-29.53 28.26-28.83L28.26-28.83Q28.26-28.48 27.55-27.07L27.55-27.07Q30.41-25.49 31.82-24.39 33.22-23.29 33.22-22.59L33.22-22.59Q33.22-20.96 31.64-20.96L31.64-20.96Q30.98-20.96 30.41-21.53L30.41-21.53Q28.34-23.42 26.28-24.87L26.28-24.87Q23.82-20.79 22.32-20.79L22.32-20.79ZM6.42-19.2Q4.7-20 3.96-20.61 3.21-21.23 3.21-21.8L3.21-21.8Q3.21-23.69 5.14-23.69L5.14-23.69Q6.02-23.69 9.49-22.02L9.49-22.02Q11.38-21.14 11.38-19.86L11.38-19.86Q11.38-17.89 9.58-17.89L9.58-17.89Q9.01-17.89 7.65-18.63L7.65-18.63 6.42-19.2ZM41.13-0.26Q42.76-0.26 42.76 1.32L42.76 1.32Q42.76 2.94 41.13 2.94L41.13 2.94 12.04 2.94Q10.42 2.94 10.42 1.32L10.42 1.32Q10.42-0.26 12.04-0.26L12.04-0.26 14.24-0.26 14.24-10.63Q14.24-12.52 15.1-13.38 15.95-14.24 17.84-14.24L17.84-14.24 36.21-14.24Q38.1-14.24 38.94-13.38 39.77-12.52 39.77-10.63L39.77-10.63 39.77-0.26 41.13-0.26ZM9.98-12.57Q11.82-12.57 11.82-10.94L11.82-10.94Q11.82-9.98 9.84-4.44L9.84-4.44Q8.09 0.57 7.12 2.29L7.12 2.29Q6.46 3.38 5.45 3.38L5.45 3.38Q3.43 3.38 3.43 1.58L3.43 1.58Q3.43 1.1 3.87 0.09L3.87 0.09Q6.11-4.88 8-10.59L8-10.59Q8.35-11.6 8.81-12.08 9.27-12.57 9.98-12.57L9.98-12.57ZM17.58-9.4L17.58-0.26 21.67-0.26 21.67-10.99 19.16-10.99Q17.58-10.99 17.58-9.4L17.58-9.4ZM29-0.26L29-10.99 24.79-10.99 24.79-0.26 29-0.26ZM34.85-10.99L32.12-10.99 32.12-0.26 36.43-0.26 36.43-9.4Q36.43-10.99 34.85-10.99L34.85-10.99ZM49.88 3.21Q48.03 3.21 48.03 1.27L48.03 1.27Q48.03 0.31 49.97-1.36L49.97-1.36Q54.18-5.14 55.11-9.71L55.11-9.71Q56.16-14.9 56.21-23.95L56.21-23.95 56.29-33.05Q56.29-35.24 58.01-35.24L58.01-35.24Q59.72-35.24 59.72-33.13L59.72-33.13 59.63-22.37Q59.59-14.06 58.49-8.79L58.49-8.79Q57.48-3.96 54.54-0.35L54.54-0.35Q51.59 3.21 49.88 3.21L49.88 3.21ZM83.89 4.13Q82.13 4.13 82.13 1.93L82.13 1.93 82.13-33Q82.13-35.24 83.89-35.24L83.89-35.24Q85.69-35.24 85.69-33L85.69-33 85.69 1.93Q85.69 4.13 83.89 4.13L83.89 4.13ZM70.4 1.8Q68.64 1.8 68.64-0.35L68.64-0.35 68.64-32.52Q68.64-34.67 70.4-34.67L70.4-34.67Q72.11-34.67 72.11-32.52L72.11-32.52 72.11-0.35Q72.11 1.8 70.4 1.8L70.4 1.8ZM49.13-9.84Q47.5-9.84 47.5-11.43L47.5-11.43Q47.5-11.65 47.77-12.26L47.77-12.26Q49.75-16.44 49.83-24.21L49.83-24.21Q49.83-26.37 51.37-26.37L51.37-26.37Q52.87-26.37 52.87-24.74L52.87-24.74 52.82-23.42Q52.6-16.04 51.33-12.35L51.33-12.35Q50.49-9.84 49.13-9.84L49.13-9.84ZM78.66-10.2Q77.96-10.2 77.54-10.79 77.12-11.38 76.9-12.66L76.9-12.66Q75.76-18.98 74.31-23.12L74.31-23.12 73.96-24.48Q73.96-25.75 75.32-25.75L75.32-25.75Q76.42-25.75 76.95-24.21L76.95-24.21Q77.39-22.98 78.09-20.65L78.09-20.65 78.35-19.78Q78.84-18.11 78.93-17.71L78.93-17.71Q79.1-17.09 79.15-16.74L79.15-16.74Q80.24-12.52 80.24-11.73L80.24-11.73Q80.24-10.2 78.66-10.2L78.66-10.2ZM65.48-10.33Q64.51-10.33 64.12-11.25L64.12-11.25Q63.9-11.82 63.59-13.84L63.59-13.84Q62.97-18.41 61.44-23.2L61.44-23.2Q61.22-23.86 61.22-24.21L61.22-24.21Q61.22-25.44 62.62-25.44L62.62-25.44Q63.63-25.44 64.69-22.15L64.69-22.15Q67.02-14.72 67.02-12.08L67.02-12.08Q67.02-10.33 65.48-10.33L65.48-10.33ZM130.74-21.88Q132.58-21.88 132.58-20.35L132.58-20.35Q132.58-18.81 130.74-18.81L130.74-18.81 94.22-18.81Q92.37-18.81 92.37-20.35L92.37-20.35Q92.37-21.88 94.22-21.88L94.22-21.88 110.39-21.88 110.39-24.48 98.48-24.48Q96.81-24.48 96.81-25.93L96.81-25.93Q96.81-27.33 98.48-27.33L98.48-27.33 110.39-27.33 110.39-29.71 95.89-29.71Q94.04-29.71 94.04-31.25L94.04-31.25Q94.04-32.78 95.89-32.78L95.89-32.78 110.39-32.78 110.39-34.1Q110.39-35.86 112.28-35.86L112.28-35.86Q114.13-35.86 114.13-34.1L114.13-34.1 114.13-32.78 129.07-32.78Q130.96-32.78 130.96-31.25L130.96-31.25Q130.96-29.71 129.07-29.71L129.07-29.71 114.13-29.71 114.13-27.33 126.47-27.33Q128.19-27.33 128.19-25.88L128.19-25.88Q128.19-25.22 127.75-24.85 127.31-24.48 126.47-24.48L126.47-24.48 114.13-24.48 114.13-21.88 130.74-21.88ZM123.05-16.74Q125.11-16.74 126.06-15.8 127-14.85 126.91-12.79L126.91-12.79 126.91-0.48Q126.91 1.71 125.77 2.99L125.77 2.99Q124.8 4.09 122.48 4.09L122.48 4.09 118.78 4.09Q116.72 4.09 116.72 2.29L116.72 2.29Q116.72 0.48 118.78 0.48L118.78 0.48 121.64 0.48Q122.43 0.48 122.87 0.04 123.31-0.4 123.31-1.23L123.31-1.23 123.31-2.81 101.6-2.81 101.6 2.24Q101.6 4.22 99.84 4.22L99.84 4.22Q98.04 4.22 98.04 2.24L98.04 2.24 98.04-12.79Q98.04-14.99 98.94-15.95 99.84-16.92 101.87-16.74L101.87-16.74 123.05-16.74ZM103.23-13.67Q102.44-13.67 102.02-13.25 101.6-12.83 101.6-12.08L101.6-12.08 101.6-11.25 123.31-11.25 123.31-12.08Q123.31-12.88 122.89-13.27 122.48-13.67 121.68-13.67L121.68-13.67 103.23-13.67ZM101.6-8.22L101.6-5.84 123.31-5.84 123.31-8.22 101.6-8.22ZM150.56-24.87Q148.8-24.87 148.8-26.67L148.8-26.67 148.8-28.78 139.7-28.78Q137.77-28.78 137.77-30.32L137.77-30.32Q137.77-31.9 139.7-31.9L139.7-31.9 148.8-31.9 148.8-33.97Q148.8-35.77 150.56-35.77L150.56-35.77Q152.27-35.77 152.27-33.97L152.27-33.97 152.27-31.9 162.25-31.9 162.25-33.97Q162.25-35.77 164-35.77L164-35.77Q165.76-35.77 165.76-33.97L165.76-33.97 165.76-31.9 175.3-31.9Q177.28-31.9 177.28-30.32L177.28-30.32Q177.28-28.78 175.3-28.78L175.3-28.78 165.76-28.78 165.76-26.76Q165.76-24.92 164-24.92L164-24.92Q162.25-24.92 162.25-26.76L162.25-26.76 162.25-28.78 152.27-28.78 152.27-26.67Q152.27-24.87 150.56-24.87L150.56-24.87ZM146.43-20.17Q145.85-20.17 143.79-21.58L143.79-21.58 142.6-22.24Q140.8-23.25 140.8-24.21L140.8-24.21Q140.8-25.97 142.65-25.97L142.65-25.97Q143.22-25.97 145.72-24.57L145.72-24.57Q148.18-23.16 148.18-22.02L148.18-22.02Q148.18-20.17 146.43-20.17L146.43-20.17ZM162.47 4.26Q160.71 4.26 160.71 2.29L160.71 2.29 160.71-5.27 149.68-5.27Q147.74-5.27 147.74-6.9L147.74-6.9Q147.74-8.57 149.68-8.57L149.68-8.57 160.71-8.57 160.71-20.35 151.57-20.35Q149.59-20.35 149.59-21.97L149.59-21.97Q149.59-23.55 151.57-23.55L151.57-23.55 173.89-23.55Q175.91-23.55 175.91-21.97L175.91-21.97Q175.91-20.35 173.89-20.35L173.89-20.35 164.27-20.35 164.27-8.57 175.21-8.57Q177.19-8.57 177.19-6.9L177.19-6.9Q177.19-5.27 175.21-5.27L175.21-5.27 164.27-5.27 164.27 2.29Q164.27 4.26 162.47 4.26L162.47 4.26ZM150.6-10.15Q149.72-10.15 149.33-10.57 148.93-10.99 148.93-11.95L148.93-11.95Q148.93-12.83 150.38-13.89L150.38-13.89Q152.27-15.25 153.98-17.53L153.98-17.53Q154.73-18.54 155.65-18.54L155.65-18.54Q157.32-18.54 157.32-17.01L157.32-17.01Q157.32-15.91 154.56-13.05L154.56-13.05Q151.79-10.15 150.6-10.15L150.6-10.15ZM174.38-10.5Q173.28-10.5 170.38-13.14L170.38-13.14Q167.43-15.78 167.43-16.74L167.43-16.74Q167.43-18.28 169.19-18.28L169.19-18.28Q169.76-18.28 171.69-16.48L171.69-16.48Q173.5-14.77 174.86-13.89L174.86-13.89Q176.04-13.1 176.04-12.26L176.04-12.26Q176.04-10.5 174.38-10.5L174.38-10.5ZM144.49-12.3Q143.96-12.3 142.6-13.05L142.6-13.05 140.67-14.06Q138.65-15.16 138.65-16.04L138.65-16.04Q138.65-16.92 139.11-17.36 139.57-17.8 140.54-17.8L140.54-17.8Q141.33-17.8 143.7-16.52L143.7-16.52Q146.16-15.21 146.16-14.19L146.16-14.19Q146.16-12.3 144.49-12.3L144.49-12.3ZM140.45 3.74Q138.38 3.74 138.38 1.76L138.38 1.76Q138.38 1.32 139.53-0.7L139.53-0.7Q140.71-2.77 142.34-6.68L142.34-6.68Q143.39-9.18 144.67-9.18L144.67-9.18Q146.47-9.18 146.47-7.73L146.47-7.73Q146.47-7.21 146.12-6.24L146.12-6.24 144.1-1.36Q141.99 3.74 140.45 3.74L140.45 3.74Z" transform="translate(-3.2100000381469727, 35.86000061035156)"></path></g> <!----> <!----> <!----> <!----> <!----> <!----> <!----></g></g> <g data-gra="path-slogan" fill-rule="" class="tp-slogan iconsvg-slogansvg" fill="#8dc63f" transform="translate(25.11499786376953,46.12000274658203)"><!----> <!----> <g transform="scale(1, 1)"><g transform="scale(1)"><path d="M5.67-7.13L5.63-7.13L3.66 0L2.44 0L0.19-8.58L1.41-8.58L3.05-1.59L3.09-1.59L5.02-8.58L6.28-8.58L8.20-1.59L8.25-1.59L9.84-8.58L11.11-8.58L8.86 0L7.64 0L5.67-7.13ZM13.50-1.03L18.66-1.03L18.66 0L12.33 0L12.33-8.58L18.56-8.58L18.56-7.59L13.50-7.59L13.50-4.92L18.19-4.92L18.19-3.89L13.50-3.89L13.50-1.03ZM21.56-8.58L25.88-1.64L25.88-8.58L27-8.58L27 0L25.69 0L21.33-6.94L21.28-6.94L21.28 0L20.16 0L20.16-8.58L21.56-8.58ZM29.63-1.03L34.92-1.03L34.92 0L28.17 0L28.17-0.94L33.42-7.59L28.55-7.59L28.55-8.58L34.92-8.58L34.92-7.59L29.63-1.03ZM37.22-5.06L41.72-5.06L41.72-8.58L42.89-8.58L42.89 0L41.72 0L41.72-3.98L37.22-3.98L37.22 0L36.05 0L36.05-8.58L37.22-8.58L37.22-5.06ZM51.47-4.27L51.47-4.27Q51.28-7.64 48.47-7.83L48.47-7.83Q45.61-7.69 45.47-4.27L45.47-4.27Q45.61-0.94 48.47-0.80L48.47-0.80Q51.28-0.98 51.47-4.27ZM52.64-4.27L52.64-4.27Q52.36 0 48.47 0.14L48.47 0.14Q44.53 0 44.25-4.27L44.25-4.27Q44.48-8.72 48.47-8.81L48.47-8.81Q52.36-8.67 52.64-4.27ZM59.67-3.19L59.67-8.58L60.84-8.58L60.84-3.05Q60.70 0.05 57.33 0.14L57.33 0.14Q54.19 0.05 54.05-2.86L54.05-2.86L54.05-8.58L55.22-8.58L55.22-3.19Q55.27-0.84 57.38-0.80L57.38-0.80Q59.67-0.84 59.67-3.19L59.67-3.19ZM70.97-1.08L70.08-1.78L70.69-2.48L71.77-1.64Q72.75-2.63 72.75-4.27L72.75-4.27Q72.56-7.64 69.75-7.83L69.75-7.83Q66.89-7.69 66.75-4.27L66.75-4.27Q66.89-0.94 69.75-0.80L69.75-0.80Q70.45-0.80 70.97-1.08L70.97-1.08ZM72.70-0.94L73.83-0.05L73.27 0.56L71.95-0.33Q71.11 0.14 69.75 0.14L69.75 0.14Q65.81 0 65.53-4.27L65.53-4.27Q65.77-8.72 69.75-8.81L69.75-8.81Q73.64-8.67 73.92-4.27L73.92-4.27Q73.88-2.20 72.70-0.94L72.70-0.94ZM75.47-8.58L76.64-8.58L76.64 0L75.47 0L75.47-8.58ZM80.02-8.58L84.33-1.64L84.33-8.58L85.45-8.58L85.45 0L84.14 0L79.78-6.94L79.73-6.94L79.73 0L78.61 0L78.61-8.58L80.02-8.58ZM93.66-3.61L91.03-3.61L91.03-4.59L94.78-4.59L94.78 0L94.03 0L93.75-1.08Q92.77 0.09 90.94 0.14L90.94 0.14Q89.20 0.14 88.27-0.75L88.27-0.75Q86.86-2.06 86.91-4.36L86.91-4.36Q87.23-8.63 90.98-8.81L90.98-8.81Q94.17-8.63 94.64-6L94.64-6L93.52-6Q93.05-7.78 90.94-7.83L90.94-7.83Q88.27-7.64 88.13-4.31L88.13-4.31Q88.13-0.75 90.98-0.75L90.98-0.75Q92.02-0.75 92.77-1.31L92.77-1.31Q93.70-2.06 93.66-3.61L93.66-3.61ZM100.22-7.64L97.88-7.64L97.88-4.64L100.17-4.64Q101.95-4.64 101.95-6.19L101.95-6.19Q101.95-7.59 100.22-7.64L100.22-7.64ZM100.59-3.61L97.88-3.61L97.88 0L96.70 0L96.70-8.58L100.59-8.58Q103.03-8.48 103.13-6.19L103.13-6.19Q102.98-3.70 100.59-3.61L100.59-3.61ZM104.72-8.58L105.89-8.58L105.89 0L104.72 0L104.72-8.58ZM109.27-8.58L113.58-1.64L113.58-8.58L114.70-8.58L114.70 0L113.39 0L109.03-6.94L108.98-6.94L108.98 0L107.86 0L107.86-8.58L109.27-8.58ZM122.91-3.61L120.28-3.61L120.28-4.59L124.03-4.59L124.03 0L123.28 0L123-1.08Q122.02 0.09 120.19 0.14L120.19 0.14Q118.45 0.14 117.52-0.75L117.52-0.75Q116.11-2.06 116.16-4.36L116.16-4.36Q116.48-8.63 120.23-8.81L120.23-8.81Q123.42-8.63 123.89-6L123.89-6L122.77-6Q122.30-7.78 120.19-7.83L120.19-7.83Q117.52-7.64 117.38-4.31L117.38-4.31Q117.38-0.75 120.23-0.75L120.23-0.75Q121.27-0.75 122.02-1.31L122.02-1.31Q122.95-2.06 122.91-3.61L122.91-3.61Z" transform="translate(-0.1875, 8.8125)"></path></g></g></g></g></g><defs v-gra="od"></defs></svg>